# xmcd
#
# Track frame offsets: 
#        150
#        15381
#        31185
#        46628
#        63831
#        77631
#        89950
#        105381
#        131059
#        146453
#        166326
#        191573
#        209555
#        234539
#        249353
#        265434
#        278140
#        298526
#        323308
#        337130
#
# Disc length: 4671 seconds
#
# Revision: 2
# Processed by: cddbd v1.5.2PL0 Copyright (c) Steve Scherf et al.
# Submitted via: ExactAudioCopyFreeDBPlugin 1.0
#
DISCID=19123d14
DTITLE=Lyn Collins - Mama Feelgood:  The Best of Lyn Collins
DYEAR=2005
DGENRE=Rhythm and Blues
TTITLE0=Think (About It)
TTITLE1=Mama Feelgood
TTITLE2=Baby Don't Do It
TTITLE3=Don't Make Me Over
TTITLE4=Wheel of Life
TTITLE5=I'll Never Let You Break My Heart Again
TTITLE6=Rock Me Again and Again and Again and Again and Again and Again
TTITLE7=Backstabbers
TTITLE8=Things Got to Get Better
TTITLE9=We Want to Parrty, Parrty, Parrty (Parts 1 and 2)
TTITLE10=Take Me Just As I Am
TTITLE11=Do Your Thing
TTITLE12=You Can't Love Me if You Don't Respect Me
TTITLE13=Me and My Baby Got a Good Thing Goin'
TTITLE14=Put It on the Line
TTITLE15=Ain't No Sunshine
TTITLE16=Give It Up or Turnit Loose
TTITLE17=How Long Can I Keep It Up
TTITLE18=Never Gonna Give You Up
TTITLE19=What My Baby Needs Now is a Little More Lovin'
EXTD=
EXTT0=
EXTT1=
EXTT2=
EXTT3=
EXTT4=
EXTT5=
EXTT6=
EXTT7=
EXTT8=
EXTT9=
EXTT10=
EXTT11=
EXTT12=
EXTT13=
EXTT14=
EXTT15=
EXTT16=
EXTT17=
EXTT18=
EXTT19=
PLAYORDER=
